PathFileType	4	(x/y/z)	S08_M20_T01
DataRate	CameraRate	NumFrames	NumMarkers	Units	OrigDataRate	OrigDataStartFrame	OrigNumFrames
240	240	9	51	mm	240	1	504
Frame#	Time	Sternum			R.Acromium			L.Acromium			Top.Head			R.ASIS			L.ASIS			R.PSIS			L.PSIS			R.Great.Tro			L.Great.Tro			R.Iliac.Crest			L.Iliac.Crest			V.Sacral			R.Thigh.Upper.Post			R.Thigh.Lower.Ant			R.Thigh.Lower.Post			R.Thigh.Upper.Ant			R.Knee.Lat			R.Knee.Med			R.Shank.Upper.Post			R.Shank.Lower.Ant			R.Shank.Lower.Post			R.Shank.Upper.Ant			R.Ankle.Lat			R.Ankle.Med			R.Heel.Upper			R.Heel.Med			R.Heel.Lat			R.Toe.Lat			R.Toe.Med			R.Toe.Tip			L.Thigh.Upper.Post			L.Thigh.Lower.Ant			L.Thigh.Lower.Post			L.Thigh.Upper.Ant			L.Knee.Lat			L.Knee.Med			L.Shank.Upper.Post			L.Shank.Lower.Ant			L.Shank.Lower.Post			L.Shank.Upper.Ant			L.Ankle.Lat			L.Ankle.Med			L.Heel.Upper			L.Heel.Med			L.Heel.Lat			L.Toe.Lat			L.Toe.Med			L.Toe.Tip			Cervical.Spine			Back			
		X1	Y1	Z1	X2	Y2	Z2	X3	Y3	Z3	X4	Y4	Z4	X5	Y5	Z5	X6	Y6	Z6	X7	Y7	Z7	X8	Y8	Z8	X9	Y9	Z9	X10	Y10	Z10	X11	Y11	Z11	X12	Y12	Z12	X13	Y13	Z13	X14	Y14	Z14	X15	Y15	Z15	X16	Y16	Z16	X17	Y17	Z17	X18	Y18	Z18	X19	Y19	Z19	X20	Y20	Z20	X21	Y21	Z21	X22	Y22	Z22	X23	Y23	Z23	X24	Y24	Z24	X25	Y25	Z25	X26	Y26	Z26	X27	Y27	Z27	X28	Y28	Z28	X29	Y29	Z29	X30	Y30	Z30	X31	Y31	Z31	X32	Y32	Z32	X33	Y33	Z33	X34	Y34	Z34	X35	Y35	Z35	X36	Y36	Z36	X37	Y37	Z37	X38	Y38	Z38	X39	Y39	Z39	X40	Y40	Z40	X41	Y41	Z41	X42	Y42	Z42	X43	Y43	Z43	X44	Y44	Z44	X45	Y45	Z45	X46	Y46	Z46	X47	Y47	Z47	X48	Y48	Z48	X49	Y49	Z49	X50	Y50	Z50	X51	Y51	Z51	

1	0	NaN	NaN	NaN	-1645.8	1436.6	489.63	-1674.9	1468.2	155.91	-1631.8	1756.8	331.7	NaN	NaN	NaN	NaN	NaN	NaN	-1768.8	1016.1	342.11	-1762	1017.7	247.59	-1666.3	888.11	500.92	-1631.1	879.78	129.24	-1678.4	1063.7	474.17	NaN	NaN	NaN	-1779.8	974.88	294.8	-1743.3	704.09	479.7	-1696.4	592.54	439.26	NaN	NaN	NaN	NaN	NaN	NaN	-1773.9	508.14	430.33	-1790.6	522.86	303.57	-1906.4	360.87	428.42	-1865	283.04	398.57	-1932.3	288.9	414.26	-1842	351.16	416.93	NaN	NaN	NaN	-1958.3	140.94	288.13	-2050.1	106.21	316.02	-2040.7	76.145	290.14	-2051.2	82.467	350.43	-1884.7	42.801	405.28	-1856.5	48.345	287.28	-1793.2	52.87	338.14	-1563.1	673.53	142.57	-1444	629.06	164.78	-1511.4	599.94	159.98	-1493.9	700.51	142.04	-1449.4	522.38	179.01	-1438.7	523.61	304.85	-1418.9	337.01	178.42	-1314.9	293.59	195.29	-1387.9	270.88	194.01	-1355.1	356.64	181.34	-1277.9	126.79	206.94	-1260.9	146.6	290.84	-1307.1	73.239	269.02	NaN	NaN	NaN	-1287.2	53.344	226.61	-1133.1	137.01	190.01	-1121.1	158.39	301.59	-1077.3	204.7	249.77	-1725.7	1500.6	322.2	-1784.3	1218.8	330.19
2	0.0041667	NaN	NaN	NaN	-1640.8	1435.9	489.28	-1669.9	1467.5	155.51	-1627	1756.2	331.24	NaN	NaN	NaN	NaN	NaN	NaN	-1763.5	1015.5	341.61	-1756	1016.9	247.3	-1661.5	887.55	500.54	-1625.7	879.38	129.04	-1673.1	1063	473.78	-1642	1065.9	162.27	-1774.4	974.28	294.27	-1739.2	703.91	479.24	-1692.2	592.13	439.11	NaN	NaN	NaN	NaN	NaN	NaN	-1770.2	507.93	430.28	-1786.4	522.49	303.42	-1904.1	361.82	428.26	-1862.7	283.54	398.69	-1929.9	289.88	414.38	-1838.6	351.61	416.5	NaN	NaN	NaN	-1957.3	142.16	288.65	-2049.3	108.07	316.32	-2040.1	78.037	290.33	-2050.6	84.188	350.65	-1884.3	42.562	405.3	-1856.3	48.484	287.37	-1793	52.728	338.13	-1558	672.89	142.55	-1438.8	628.44	164.84	-1506.1	599.33	160.11	-1488.7	699.85	141.91	-1444.3	521.68	179.19	-1433.8	523.14	304.89	-1414.6	336.12	178.7	-1310.2	292.59	195.2	-1383.9	269.87	194.33	-1350.8	355.45	181.7	-1275	125.3	207.21	-1257.6	144.99	291.31	-1304.4	72.071	268.52	-1274.2	52.651	290.94	-1284.3	52.001	227.03	-1130.2	134.94	190.32	-1117.7	156.07	302.02	-1073.8	202.36	250.25	-1720.7	1499.9	321.83	-1779.1	1218	329.84
3	0.0083333	NaN	NaN	NaN	-1635.5	1435.3	488.91	-1664.8	1466.7	155.1	-1621.9	1755.6	330.76	NaN	NaN	NaN	NaN	NaN	NaN	-1757.9	1014.9	341.08	-1749.7	1016.1	246.99	-1656.6	886.98	500.14	-1620	878.96	128.82	-1667.6	1062.3	473.37	-1636.4	1065.3	161.88	-1768.8	973.67	293.72	-1734.9	703.76	478.75	-1687.8	591.71	438.95	NaN	NaN	NaN	NaN	NaN	NaN	-1766.2	507.73	430.24	-1782	522.1	303.27	-1901.6	362.79	428.12	-1860.3	284.06	398.83	-1927.3	290.91	414.52	-1835.1	352.06	416.08	NaN	NaN	NaN	-1956.2	143.43	289.19	-2048.4	110.04	316.62	-2039.4	80.043	290.52	-2049.8	86.016	350.86	-1884	42.331	405.31	-1856.1	48.627	287.47	-1792.7	52.581	338.13	-1552.5	672.23	142.54	-1433.4	627.81	164.92	-1500.6	598.72	160.25	-1483.2	699.18	141.79	-1439	520.96	179.38	-1428.6	522.66	304.94	-1410.2	335.2	178.99	-1305.4	291.46	195.19	-1379.9	268.82	194.64	-1346.2	354.2	182.08	-1272.1	123.74	207.49	-1254.4	143.28	291.79	-1301.6	70.881	268.07	-1271.8	51.186	291.28	-1281.5	50.629	227.44	-1127.1	132.73	190.64	-1114.3	153.57	302.46	-1070.2	199.82	250.77	-1715.5	1499.1	321.43	-1773.6	1217.2	329.47
4	0.0125	NaN	NaN	NaN	-1630	1434.6	488.52	-1659.5	1466	154.66	-1616.7	1754.9	330.26	NaN	NaN	NaN	NaN	NaN	NaN	-1752.2	1014.2	340.54	-1743.3	1015.3	246.64	-1651.4	886.39	499.71	-1614	878.53	128.57	-1661.8	1061.5	472.95	-1630.6	1064.7	161.47	-1762.9	973.05	293.15	-1730.5	703.62	478.23	-1683.2	591.29	438.8	NaN	NaN	NaN	NaN	NaN	NaN	-1762.2	507.52	430.19	-1777.3	521.71	303.11	-1898.9	363.79	428	-1857.7	284.62	398.97	-1924.5	291.99	414.66	-1831.5	352.53	415.69	NaN	NaN	NaN	-1955	144.75	289.74	-2047.4	112.12	316.94	-2038.7	82.159	290.71	-2049.1	87.948	351.09	-1883.6	42.113	405.33	-1856	48.773	287.57	-1792.5	52.433	338.13	-1546.9	671.57	142.53	-1427.7	627.17	165.01	-1494.9	598.1	160.4	-1477.5	698.5	141.67	-1433.4	520.23	179.59	-1423.3	522.16	305.01	-1405.6	334.26	179.28	-1300.7	290.22	195.27	-1375.7	267.74	194.95	-1341.6	352.91	182.47	-1269.1	122.12	207.78	-1251.1	141.48	292.29	-1298.9	69.685	267.69	-1269.4	49.684	291.62	-1278.7	49.244	227.86	-1124.2	130.37	190.98	-1110.9	150.88	302.93	-1066.6	197.08	251.33	-1710.1	1498.4	321.02	-1768	1216.4	329.09
5	0.016667	NaN	NaN	NaN	-1624.4	1433.9	488.12	-1654	1465.2	154.21	-1611.4	1754.2	329.75	NaN	NaN	NaN	NaN	NaN	NaN	-1746.2	1013.6	339.99	-1736.7	1014.6	246.27	-1646.1	885.8	499.27	-1607.9	878.09	128.31	-1655.9	1060.7	472.52	-1624.5	1064.1	161.05	-1756.9	972.44	292.57	-1725.9	703.5	477.67	-1678.6	590.87	438.66	NaN	NaN	NaN	NaN	NaN	NaN	-1757.9	507.32	430.15	-1772.5	521.31	302.96	-1896	364.8	427.9	-1855	285.2	399.13	-1921.7	293.1	414.82	-1827.8	353	415.35	NaN	NaN	NaN	-1953.7	146.12	290.29	-2046.4	114.3	317.27	-2037.9	84.381	290.91	-2048.3	89.981	351.32	-1883.3	41.914	405.36	-1855.8	48.921	287.68	-1792.2	52.283	338.14	-1541	670.91	142.52	-1421.9	626.53	165.11	-1489	597.48	160.56	-1471.6	697.83	141.55	-1427.7	519.5	179.82	-1417.8	521.65	305.08	-1401	333.31	179.56	-1295.9	288.86	195.45	-1371.5	266.63	195.26	-1336.8	351.57	182.88	-1266.1	120.45	208.07	-1247.8	139.61	292.79	-1296.2	68.5	267.37	-1267	48.162	291.95	-1276	47.866	228.27	-1121.2	127.88	191.35	-1107.4	148.01	303.42	-1063	194.13	251.93	-1704.5	1497.6	320.59	-1762.2	1215.5	328.68
6	0.020833	NaN	NaN	NaN	-1618.6	1433.1	487.69	-1648.4	1464.4	153.75	-1605.9	1753.6	329.23	NaN	NaN	NaN	NaN	NaN	NaN	-1740.1	1013	339.42	-1729.9	1013.8	245.87	-1640.5	885.2	498.8	-1601.6	877.65	128.03	-1649.8	1059.9	472.07	-1618.3	1063.4	160.6	-1750.7	971.83	291.97	-1721.3	703.4	477.09	-1673.8	590.45	438.53	NaN	NaN	NaN	NaN	NaN	NaN	-1753.5	507.11	430.11	-1767.6	520.91	302.8	-1892.9	365.81	427.84	-1852.2	285.8	399.3	-1918.6	294.24	414.98	-1824	353.48	415.05	NaN	NaN	NaN	-1952.3	147.52	290.85	-2045.3	116.58	317.61	-2037.1	86.709	291.12	-2047.4	92.114	351.55	-1883	41.738	405.38	-1855.6	49.071	287.79	-1792	52.134	338.16	-1535	670.27	142.52	-1415.9	625.9	165.23	-1483	596.87	160.73	-1465.6	697.17	141.44	-1421.8	518.78	180.07	-1412.1	521.13	305.17	-1396.2	332.36	179.83	-1291.3	287.38	195.73	-1367.2	265.51	195.55	-1332	350.2	183.31	-1263.2	118.74	208.36	-1244.6	137.67	293.3	-1293.5	67.345	267.13	-1264.7	46.637	292.28	-1273.4	46.513	228.66	-1118.3	125.25	191.73	-1104.1	144.95	303.93	-1059.4	190.97	252.56	-1698.8	1496.8	320.16	-1756.2	1214.7	328.27
7	0.025	NaN	NaN	NaN	-1612.7	1432.4	487.25	-1642.7	1463.7	153.27	-1600.4	1752.9	328.71	NaN	NaN	NaN	NaN	NaN	NaN	-1733.8	1012.4	338.85	-1723.2	1013.1	245.44	-1634.9	884.61	498.31	-1595.2	877.2	127.73	-1643.6	1059.1	471.62	-1611.9	1062.8	160.14	-1744.3	971.24	291.35	-1716.5	703.32	476.48	-1668.9	590.04	438.42	NaN	NaN	NaN	NaN	NaN	NaN	-1749	506.91	430.07	-1762.4	520.51	302.64	-1889.6	366.83	427.81	-1849.3	286.43	399.49	-1915.4	295.41	415.16	-1820.1	353.96	414.81	NaN	NaN	NaN	-1950.8	148.96	291.42	-2044	118.96	317.96	-2036.2	89.141	291.34	-2046.5	94.347	351.79	-1882.6	41.587	405.41	-1855.4	49.221	287.91	-1791.8	51.988	338.18	-1528.8	669.64	142.52	-1409.8	625.29	165.37	-1476.8	596.28	160.91	-1459.4	696.53	141.34	-1415.8	518.07	180.33	-1406.4	520.6	305.27	-1391.4	331.42	180.08	-1286.8	285.8	196.13	-1362.9	264.38	195.82	-1327.1	348.81	183.75	-1260.3	117	208.66	-1241.4	135.69	293.82	-1291	66.24	266.98	-1262.5	45.131	292.59	-1271	45.207	229.04	-1115.5	122.5	192.14	-1100.8	141.72	304.46	-1055.8	187.62	253.22	-1693.1	1496.1	319.71	-1750.1	1213.8	327.84
8	0.029167	NaN	NaN	NaN	-1606.7	1431.7	486.78	-1636.9	1462.9	152.78	-1594.8	1752.3	328.19	NaN	NaN	NaN	NaN	NaN	NaN	-1727.5	1011.8	338.27	-1716.3	1012.4	244.99	-1629.1	884.02	497.81	-1588.7	876.76	127.4	-1637.3	1058.4	471.16	-1605.4	1062.2	159.66	-1737.9	970.67	290.73	-1711.7	703.26	475.86	-1664	589.65	438.32	NaN	NaN	NaN	NaN	NaN	NaN	-1744.4	506.72	430.04	-1757.2	520.1	302.49	-1886.1	367.85	427.81	-1846.3	287.09	399.69	-1912.1	296.61	415.35	-1816.2	354.45	414.62	NaN	NaN	NaN	-1949.2	150.43	291.99	-2042.7	121.44	318.32	-2035.1	91.677	291.56	-2045.5	96.681	352.04	-1882.3	41.463	405.45	-1855.2	49.372	288.04	-1791.5	51.846	338.21	-1522.5	669.05	142.53	-1403.5	624.69	165.52	-1470.5	595.71	161.1	-1453	695.91	141.25	-1409.7	517.37	180.6	-1400.5	520.07	305.38	-1386.6	330.49	180.32	-1282.4	284.13	196.61	-1358.6	263.26	196.07	-1322.2	347.42	184.19	-1257.4	115.26	208.95	-1238.4	133.67	294.33	-1288.6	65.205	266.9	-1260.4	43.662	292.88	-1268.7	43.97	229.4	-1112.8	119.63	192.56	-1097.6	138.34	305.01	-1052.3	184.07	253.92	-1687.2	1495.3	319.25	-1743.9	1213	327.4
9	0.033333	NaN	NaN	NaN	-1600.7	1431	486.31	-1631.1	1462.2	152.28	-1589.2	1751.7	327.66	NaN	NaN	NaN	NaN	NaN	NaN	-1721	1011.2	337.68	-1709.4	1011.8	244.51	-1623.2	883.44	497.28	-1582	876.32	127.05	-1630.8	1057.6	470.69	-1598.8	1061.6	159.17	-1731.3	970.13	290.1	-1706.7	703.21	475.21	-1659	589.26	438.24	NaN	NaN	NaN	NaN	NaN	NaN	-1739.6	506.54	430.02	-1751.8	519.7	302.34	-1882.3	368.86	427.84	-1843.1	287.78	399.9	-1908.7	297.84	415.55	-1812.2	354.95	414.48	NaN	NaN	NaN	-1947.5	151.92	292.57	-2041.3	124.02	318.69	-2034	94.317	291.79	-2044.4	99.116	352.29	-1882	41.367	405.49	-1854.9	49.523	288.17	-1791.3	51.71	338.25	-1516.1	668.49	142.54	-1397.2	624.12	165.68	-1464.2	595.17	161.29	-1446.6	695.33	141.17	-1403.5	516.69	180.88	-1394.6	519.53	305.5	-1381.8	329.58	180.54	-1278.2	282.4	197.18	-1354.4	262.14	196.31	-1317.3	346.02	184.64	-1254.7	113.51	209.23	-1235.4	131.63	294.85	-1286.2	64.26	266.9	-1258.4	42.254	293.16	-1266.6	42.823	229.74	-1110.2	116.67	193.01	-1094.5	134.81	305.56	-1048.8	180.34	254.64	-1681.3	1494.6	318.78	-1737.6	1212.1	326.94
